<?xml version="1.0" encoding="utf-8"?>
<!-- Generator: Adobe Illustrator 24.0.0, SVG Export Plug-In . SVG Version: 6.00 Build 0)  -->
<svg version="1.1" id="Livello_1" xmlns="http://www.w3.org/2000/svg" xmlns:xlink="http://www.w3.org/1999/xlink" x="0px" y="0px"
	 viewBox="0 0 608.6 671" style="enable-background:new 0 0 608.6 671;" xml:space="preserve">
<style type="text/css">
	.st0{fill:#FFFFFF;}
</style>
<path class="st0" d="M438.8,0l-31.2,295.9L354.4,46.4L187.5,81.8l53.2,249.4L0,382.2l42.5,199.2L465.7,671l96.8-216.5l46.1-436.7
	L438.8,0L438.8,0L438.8,0z M305.1,429.2c-8.7,8-20.3,7.2-32.5,3.2c-12.2-4-17.7-18.8-13-36.6c3.4-13.2,19.7-15.2,27.8-15.3
	c3.1-0.1,6.1,0.6,8.9,1.8c5.7,2.6,15.5,8.1,17.4,16.5C316.6,411,313.9,421.2,305.1,429.2L305.1,429.2L305.1,429.2L305.1,429.2z
	 M427.6,442.9c-6.3,11-23,12.4-39.4,4.4c-11-5.4-11-19.1-9.7-27.5c0.6-4.6,2.5-8.9,5.3-12.5c3.9-5,10.5-11.5,18.1-11.7
	c12.4-0.3,23,5.2,29,15.2C437.1,421,434,432,427.6,442.9L427.6,442.9z"/>
</svg>
