<?xml version="1.0" encoding="utf-8"?>
<!-- Generator: Adobe Illustrator 26.4.1, SVG Export Plug-In . SVG Version: 6.00 Build 0)  -->
<svg version="1.1" xmlns="http://www.w3.org/2000/svg" xmlns:xlink="http://www.w3.org/1999/xlink" x="0px" y="0px"
	 viewBox="0 0 300 150" style="enable-background:new 0 0 300 150;" xml:space="preserve">
<style type="text/css">
	.st0{fill:#ECB867;}
	.st1{fill:#FCFCFC;}
	.st2{fill:#D4EFEE;}
	.st3{fill:#FFFFFF;}
</style>
<g id="_x31_">
	<g>
		<path class="st1" d="M168.71,88.8c1.13-4.62,2.19-8.98,3.26-13.34c0.28-1.13,0.59-2.24,0.83-3.38c0.12-0.55,0.37-0.72,0.91-0.71
			c1.5,0.03,3,0.03,4.5,0c0.68-0.01,0.81,0.15,0.62,0.85c-1.3,4.72-2.55,9.46-3.82,14.19c-0.5,1.88-1.02,3.75-1.49,5.64
			c-0.18,0.73-0.48,1.05-1.29,1.03c-2.36-0.06-4.73-0.04-7.09-0.01c-0.64,0.01-0.97-0.11-1.16-0.84
			c-1.75-6.62-3.54-13.23-5.37-19.82c-0.26-0.94,0.01-1.09,0.85-1.05c1.2,0.06,2.41,0.11,3.6-0.01c1.13-0.12,1.44,0.38,1.67,1.37
			c1.17,5.03,2.43,10.04,3.65,15.05C168.45,88.03,168.54,88.28,168.71,88.8z"/>
		<path class="st1" d="M144.73,77.56c0,4.8-0.02,9.6,0.02,14.41c0.01,0.89-0.25,1.18-1.13,1.12c-1.16-0.07-2.33-0.06-3.49,0
			c-0.78,0.04-1.03-0.22-1.02-1.01c0.04-3.9,0.02-7.8,0.02-11.7c0-5.78,0.03-11.56-0.02-17.33c-0.01-1.01,0.29-1.31,1.27-1.23
			c1.12,0.08,2.25,0.07,3.37,0c0.8-0.04,1.01,0.23,1.01,1.01C144.71,67.73,144.73,72.64,144.73,77.56z"/>
		<path class="st1" d="M155.33,82.19c0,3.23-0.05,6.45,0.03,9.68c0.02,1.03-0.31,1.29-1.27,1.22c-1.12-0.08-2.25-0.07-3.37,0
			c-0.82,0.05-1-0.28-1-1.04c0.02-6.56,0.02-13.13,0-19.69c0-0.7,0.16-1.02,0.94-0.98c1.27,0.06,2.55,0.05,3.82,0
			c0.73-0.03,0.87,0.27,0.86,0.92C155.32,75.59,155.33,78.89,155.33,82.19z"/>
		<path class="st1" d="M152.58,61.4c1.97,0,3.53,1.5,3.55,3.44c0.03,1.96-1.61,3.61-3.56,3.6c-1.98-0.01-3.56-1.62-3.53-3.61
			C149.07,62.84,150.56,61.4,152.58,61.4z"/>
		<path class="st1" d="M72.69,43.67c-2.05-0.17-4.1-0.4-6.15-0.62c-3.06-0.32-6.12-0.62-9.17-0.97c-0.73-0.08-0.96,0.13-1.01,0.88
			c-0.1,1.61-0.32,3.21-0.49,4.81c-0.73,6.86-1.46,13.72-2.2,20.57c-0.1,0.97-0.25,1.93-0.38,2.89c-0.3-0.42-0.41-0.82-0.5-1.22
			c-1.59-7.4-3.18-14.79-4.75-22.19c-0.17-0.81-0.43-1.07-1.34-0.86c-5.08,1.13-10.18,2.18-15.28,3.21c-0.69,0.14-0.72,0.42-0.6,1
			c0.9,4.1,1.77,8.2,2.65,12.3c0.82,3.81,1.63,7.62,2.46,11.42c0.11,0.49,0.17,0.82-0.5,0.96c-4.7,0.95-9.39,1.94-14.08,2.91
			c-3.33,0.69-6.67,1.37-10.01,2.05c0,0.08,0,0.15,0,0.23c0.06,0.13,0.16,0.26,0.19,0.4c1.3,6.08,2.61,12.15,3.89,18.24
			c0.2,0.97,0.56,1.5,1.66,1.72c6.65,1.32,13.28,2.75,19.91,4.14c7.08,1.48,14.16,2.92,21.22,4.45c0.91,0.2,1.18-0.14,1.48-0.82
			c2.64-5.88,5.31-11.74,7.94-17.62c0.56-1.26,1.41-2.44,1.57-3.83c0.59-5.1,1.09-10.21,1.63-15.32c0.5-4.7,1-9.39,1.5-14.09
			c0.48-4.47,0.93-8.95,1.44-13.41C73.88,43.97,73.51,43.74,72.69,43.67z M40.93,86.25c-1.98-0.01-3.03-0.98-3.02-2.81
			c0-1.91,0.84-2.69,2.91-2.69c1.69,0,2.95,1.19,2.92,2.73C43.7,85.04,42.46,86.26,40.93,86.25z M53.21,88.02
			c-1.98-0.05-2.99-0.98-2.96-2.71c0.02-1.64,1.26-3.12,2.61-3.11c1.68,0.01,3.15,1.38,3.1,2.9C55.91,86.83,54.75,88.06,53.21,88.02
			z"/>
		<path class="st1" d="M110.76,92.21c-0.9-3.03-0.76-6.15-0.75-9.26c0.02-6.64-0.02-13.29,0.03-19.93c0.01-1.03-0.29-1.29-1.26-1.22
			c-1.16,0.08-2.33,0.05-3.49,0.01c-0.68-0.03-0.92,0.19-0.9,0.89c0.04,1.54,0.01,3.08,0.01,4.62c0,2.12,0,4.24,0,6.35
			c-0.34,0.05-0.43-0.15-0.56-0.27c-4.1-3.71-10.31-3.26-13.61,1.17c-3.18,4.28-3.37,9-1.06,13.69c2.11,4.31,6.43,6.09,11.06,4.92
			c1.68-0.42,2.99-1.48,4.29-2.68c0.15,0.61,0.33,1.1,0.4,1.6c0.1,0.71,0.38,1.02,1.16,0.97c1.31-0.07,2.63-0.04,3.94-0.01
			C110.66,93.09,110.99,93.01,110.76,92.21z M98.86,87.71c-3.35,0.01-5.7-2.25-5.69-5.49c0.01-3.22,2.27-5.42,5.61-5.44
			c3.41-0.02,5.65,2.15,5.65,5.46C104.42,85.49,102.17,87.7,98.86,87.71z"/>
		<path class="st1" d="M135.28,79.31c-0.99-4.43-3.71-7.23-8.13-8.14c-4.26-0.88-8.06,0.12-10.95,3.57
			c-2.39,2.86-2.75,6.27-2.27,9.78c0.42,3.08,1.93,5.65,4.69,7.18c5.04,2.8,10.08,2.19,15.04-0.36c0.52-0.27,0.42-0.61,0.23-1.02
			c-0.49-1.05-1.04-2.09-1.42-3.18c-0.3-0.87-0.69-0.81-1.39-0.5c-2.56,1.15-5.21,1.65-7.99,0.93c-1.52-0.39-2.68-1.26-3.43-2.88
			c0.34-0.02,0.52-0.04,0.7-0.04c4.62,0,9.23-0.02,13.85,0.02c0.86,0.01,1.27-0.16,1.34-1.13C135.67,82.11,135.6,80.71,135.28,79.31
			z M128.83,80.32c-1.42-0.07-2.85-0.02-4.27-0.02c-1.5,0-3-0.04-4.49,0.01c-0.83,0.03-0.86-0.27-0.59-0.91
			c0.41-0.97,1.04-1.77,1.97-2.22c2.11-1.03,4.27-1.03,6.37,0.05c0.81,0.42,1.37,1.13,1.78,1.96
			C130.02,80.07,129.82,80.37,128.83,80.32z"/>
		<path class="st1" d="M187.47,84.71c2.29-0.01,4.58-0.01,6.87-0.01c1.69,0,3.38,0,5.07,0c3.07,0,3.11,0,3.01-3.09
			c-0.31-9.42-9.68-12.93-16.36-9.32c-4.19,2.27-5.65,6.14-5.46,10.69c0.18,4.2,1.97,7.6,5.93,9.36c4.75,2.11,9.44,1.46,13.95-0.93
			c0.51-0.27,0.46-0.59,0.27-1.01c-0.52-1.12-1.06-2.23-1.52-3.38c-0.25-0.63-0.55-0.67-1.11-0.39c-1.46,0.73-3.02,1.14-4.63,1.29
			c-2.48,0.23-4.81-0.09-6.48-2.24c-0.18-0.23-0.48-0.47-0.35-0.78C186.81,84.54,187.2,84.71,187.47,84.71z M186.4,79.48
			c0.59-1.41,1.62-2.27,3.06-2.75c2.69-0.89,5.81,0.07,6.95,2.19c0.65,1.21,0.55,1.38-0.78,1.38c-1.39,0-2.77,0-4.16,0
			c-1.5,0-3-0.03-4.49,0.01C186.23,80.34,186.14,80.09,186.4,79.48z"/>
		<path class="st1" d="M266.55,70.93c-5.97,0.21-10.38,4.96-10.4,11.22c-0.02,6.58,4.36,11.31,10.88,11.41
			c6.45,0.1,10.86-4.33,11.22-10.48c0-0.53,0-1.06,0-1.6C277.77,74.87,273.14,70.7,266.55,70.93z M267.33,87.71
			c-3.33,0.07-5.76-2.21-5.78-5.41c-0.03-3.23,2.32-5.51,5.67-5.51c3.36,0,5.61,2.16,5.63,5.4
			C272.86,85.43,270.66,87.64,267.33,87.71z"/>
		<path class="st1" d="M242.38,70.93c-6.39,0.02-11.03,4.76-11.03,11.28c0,6.59,4.67,11.4,11.08,11.38
			c6.45-0.02,11.06-4.76,11.05-11.37C253.46,75.59,248.87,70.91,242.38,70.93z M242.52,87.71c-3.33,0.05-5.73-2.22-5.74-5.44
			c-0.01-3.26,2.3-5.49,5.68-5.48c3.37,0.01,5.57,2.16,5.58,5.43C248.05,85.48,245.85,87.66,242.52,87.71z"/>
		<path class="st1" d="M205.72,93.08c1.31-0.03,2.63-0.06,3.94,0.01c0.78,0.04,1.06-0.26,1.16-0.97c0.07-0.51,0.24-1,0.4-1.6
			c1.3,1.2,2.61,2.25,4.29,2.68c4.63,1.17,8.94-0.62,11.06-4.92c2.3-4.69,2.12-9.42-1.06-13.69c-3.3-4.43-9.51-4.88-13.61-1.17
			c-0.13,0.12-0.21,0.31-0.56,0.27c0-2.11,0-4.23,0-6.35c0-1.54-0.03-3.08,0.01-4.62c0.02-0.7-0.22-0.91-0.9-0.89
			c-1.16,0.05-2.33,0.07-3.49-0.01c-0.97-0.07-1.27,0.19-1.26,1.22c0.05,6.64,0.01,13.29,0.03,19.93c0.01,3.11,0.14,6.23-0.75,9.26
			C204.73,93.01,205.07,93.09,205.72,93.08z M211.31,82.25c0-3.31,2.25-5.48,5.65-5.46c3.33,0.02,5.6,2.22,5.61,5.44
			c0.01,3.24-2.34,5.5-5.69,5.49C213.56,87.7,211.31,85.49,211.31,82.25z"/>
	</g>
</g>
<g id="Livello_3">
</g>
<g id="_x32_">
</g>
</svg>
